<svg xmlns="http://www.w3.org/2000/svg" viewBox="0 0 1024 1024">
  <path d="M912.658657 210.724329 111.963513 210.724329c-27.560706 0-50.04479 22.531156-50.04479 50.042743l0 500.416174c0 27.51875 22.484084 50.043766 50.04479 50.043766l800.695145 0c27.471678 0 50.049906-22.526039 50.049906-50.043766L962.708564 260.767072C962.708564 233.250368 940.130336 210.724329 912.658657 210.724329L912.658657 210.724329zM562.35434 310.807768 662.440849 310.807768l0 100.082416-100.087533 0L562.353316 310.807768 562.35434 310.807768zM712.487685 460.934974l0 100.079346-100.088556 0 0-100.079346L712.487685 460.934974 712.487685 460.934974zM412.228157 310.807768l100.084463 0 0 100.082416-100.084463 0L412.228157 310.807768 412.228157 310.807768zM562.35434 460.934974l0 100.079346L462.271924 561.01432l0-100.079346L562.35434 460.934974 562.35434 460.934974zM262.095835 310.807768l100.087533 0 0 100.082416-100.087533 0L262.095835 310.807768 262.095835 310.807768zM412.228157 460.934974l0 100.079346-100.089579 0 0-100.079346L412.228157 460.934974 412.228157 460.934974zM162.007279 310.807768l50.043766 0 0 100.082416-50.043766 0L162.007279 310.807768 162.007279 310.807768zM162.007279 460.934974l100.088556 0 0 100.079346-100.088556 0L162.007279 460.934974 162.007279 460.934974zM212.051045 711.144596l-50.043766 0 0-100.083439 50.043766 0L212.051045 711.144596 212.051045 711.144596zM662.440849 711.144596 262.095835 711.144596l0-100.083439L662.440849 611.061157 662.440849 711.144596 662.440849 711.144596zM862.618984 711.144596 712.487685 711.144596l0-100.083439 150.131299 0L862.618984 711.144596 862.618984 711.144596zM862.618984 561.01432l-100.092649 0 0-100.079346 100.089579 0L862.618984 561.01432 862.618984 561.01432 862.618984 561.01432zM862.618984 410.890184 712.487685 410.890184l0-100.082416 150.131299 0L862.618984 410.890184 862.618984 410.890184zM862.618984 410.890184"></path>
</svg>