<svg xmlns="http://www.w3.org/2000/svg" viewBox="0 0 1024 1024" fill="var(--color_purple)">
  <path d="M891.424 485.664A382.272 382.272 0 0 0 530.88 125.12V61.312a445.952 445.952 0 0 1 424.352 424.352zM488.352 125.12A382.272 382.272 0 0 0 127.808 485.664H64A445.952 445.952 0 0 1 488.352 61.312zM127.808 528.192a382.272 382.272 0 0 0 360.544 360.544v63.808A445.952 445.952 0 0 1 64 528.192z m403.2 211.648v-64.224a170.048 170.048 0 0 0 147.424-147.424h64.224a233.92 233.92 0 0 1-211.776 211.648z m211.648-254.176h-64.352a170.048 170.048 0 0 0-147.424-147.424V274.016a233.92 233.92 0 0 1 211.648 211.648z m-254.304-211.648v64.224a170.048 170.048 0 0 0-147.424 147.424H276.704a233.92 233.92 0 0 1 211.648-211.648z m-211.648 254.176h64.224a170.048 170.048 0 0 0 147.424 147.424v64.224a233.92 233.92 0 0 1-211.648-211.648z m254.176 360.544a382.272 382.272 0 0 0 360.544-360.544h63.808A445.952 445.952 0 0 1 530.88 952.544z"></path>
</svg>